<?xml version="1.0" encoding="UTF-8" standalone="no"?>
<!-- Created with Inkscape (http://www.inkscape.org/) -->

<svg
   width="100mm"
   height="100mm"
   viewBox="0 0 100 100"
   version="1.1"
   id="svg5"
   inkscape:version="1.2.2 (732a01da63, 2022-12-09)"
   sodipodi:docname="logo5.svg"
   xml:space="preserve"
   inkscape:export-filename="logo5.png"
   inkscape:export-xdpi="65.024002"
   inkscape:export-ydpi="65.024002"
   xmlns:inkscape="http://www.inkscape.org/namespaces/inkscape"
   xmlns:sodipodi="http://sodipodi.sourceforge.net/DTD/sodipodi-0.dtd"
   xmlns="http://www.w3.org/2000/svg"
   xmlns:svg="http://www.w3.org/2000/svg"><sodipodi:namedview
     id="namedview7"
     pagecolor="#505050"
     bordercolor="#eeeeee"
     borderopacity="1"
     inkscape:showpageshadow="0"
     inkscape:pageopacity="0"
     inkscape:pagecheckerboard="0"
     inkscape:deskcolor="#505050"
     inkscape:document-units="mm"
     showgrid="false"
     inkscape:zoom="1.7316979"
     inkscape:cx="335.7976"
     inkscape:cy="219.14908"
     inkscape:window-width="3200"
     inkscape:window-height="1711"
     inkscape:window-x="2391"
     inkscape:window-y="-9"
     inkscape:window-maximized="1"
     inkscape:current-layer="layer1" /><defs
     id="defs2" /><g
     inkscape:label="Layer 1"
     inkscape:groupmode="layer"
     id="layer1"><path
       id="path3738"
       style="fill:#0f0056;fill-opacity:1;stroke:#ffffff;stroke-width:5.36682;stroke-linecap:round;stroke-linejoin:bevel;stroke-dasharray:none;stroke-opacity:1"
       d="m 11.936162,2.9931786 c 3.193908,0.753303 6.295905,1.9033166 9.318963,3.1771644 7.238311,3.1258724 13.990886,7.260925 20.433721,11.770866 12.565955,8.999218 24.024095,19.749715 33.904117,31.678718 7.605033,9.253142 14.483301,19.244501 19.181493,30.292364 0.977192,2.396293 1.902257,4.837209 2.54212,7.339922 0.0087,1.194873 -1.35945,1.564206 -2.247402,1.817301 C 83.264876,93.119465 70.864545,95.15572 58.470262,96.363149 44.602995,97.635497 30.591309,97.710574 16.746842,96.123147 13.532954,95.71341 10.304592,95.320316 7.1472389,94.580451 5.9758843,93.977492 6.1921436,92.450983 5.8225802,91.378814 2.9983887,77.69587 2.4594206,63.643574 2.967369,49.71566 3.5088869,37.063196 4.9886242,24.405934 8.0687778,12.10383 8.8056507,9.2477571 9.5653494,6.379704 10.562337,3.6079783 10.838006,3.1564931 11.42495,2.9571991 11.936162,2.9931786 Z" /><path
       style="fill:none;stroke:#ffffff;stroke-width:3.06058;stroke-linecap:butt;stroke-linejoin:miter;stroke-dasharray:none;stroke-opacity:1"
       d="m 18.757629,23.689161 17.825424,8.686989 5.632453,11.434541 8.111638,13.466353 -5.048493,12.351365 18.67102,13.797434 L 75.774438,73.065573 50.409559,57.43034"
       id="path4402" /><path
       style="fill:#ffffff;fill-opacity:1;stroke:none;stroke-width:1.39392;stroke-linecap:round;stroke-linejoin:round;stroke-dasharray:none"
       id="path7143"
       sodipodi:type="arc"
       sodipodi:cx="16.009159"
       sodipodi:cy="-103.80693"
       sodipodi:rx="4.7296524"
       sodipodi:ry="4.7369742"
       sodipodi:start="0.0099365434"
       sodipodi:end="6.2831853"
       sodipodi:open="true"
       sodipodi:arc-type="arc"
       d="m 20.738578,-103.75986 a 4.7296524,4.7369742 0 0 1 -4.764666,4.689772 4.7296524,4.7369742 0 0 1 -4.694347,-4.760382 4.7296524,4.7369742 0 0 1 4.741343,-4.71342 4.7296524,4.7369742 0 0 1 4.717903,4.73696"
       transform="matrix(-0.58042776,0.81431174,-0.81686873,-0.57682361,0,0)" /><path
       style="fill:#ffffff;fill-opacity:1;stroke:none;stroke-width:2.54395;stroke-linecap:round;stroke-linejoin:round;stroke-dasharray:none"
       id="path7145"
       sodipodi:type="arc"
       sodipodi:cx="11.235088"
       sodipodi:cy="-59.626446"
       sodipodi:rx="4.9799232"
       sodipodi:ry="4.9876323"
       sodipodi:start="0.0099365434"
       sodipodi:end="6.2831853"
       sodipodi:open="true"
       sodipodi:arc-type="arc"
       d="m 16.214766,-59.576887 a 4.9799232,4.9876323 0 0 1 -5.01679,4.937935 4.9799232,4.9876323 0 0 1 -4.9427494,-5.012274 4.9799232,4.9876323 0 0 1 4.9922324,-4.962837 4.9799232,4.9876323 0 0 1 4.967553,4.987617"
       transform="matrix(-0.58042776,0.81431174,-0.81686873,-0.57682361,0,0)" /><path
       style="fill:#ffffff;fill-opacity:1;stroke:none;stroke-width:3.16926;stroke-linecap:round;stroke-linejoin:round;stroke-dasharray:none"
       id="path7147"
       sodipodi:type="arc"
       sodipodi:cx="31.241184"
       sodipodi:cy="-100.20306"
       sodipodi:rx="4.549593"
       sodipodi:ry="4.5566359"
       sodipodi:start="0.0099365434"
       sodipodi:end="6.2831853"
       sodipodi:open="true"
       sodipodi:arc-type="arc"
       d="m 35.790553,-100.15778 a 4.549593,4.5566359 0 0 1 -4.583274,4.511233 4.549593,4.5566359 0 0 1 -4.515632,-4.579143 4.549593,4.5566359 0 0 1 4.560839,-4.53399 4.549593,4.5566359 0 0 1 4.538291,4.55662"
       transform="matrix(-0.58042776,0.81431174,-0.81686873,-0.57682361,0,0)" /><path
       style="fill:#ffffff;fill-opacity:1;stroke:none;stroke-width:2.45004;stroke-linecap:round;stroke-linejoin:round;stroke-dasharray:none"
       id="path7147-4"
       sodipodi:type="arc"
       sodipodi:cx="17.640303"
       sodipodi:cy="-74.02697"
       sodipodi:rx="3.5171316"
       sodipodi:ry="3.5225761"
       sodipodi:start="0.0099365434"
       sodipodi:end="6.2831853"
       sodipodi:open="true"
       sodipodi:arc-type="arc"
       d="m 21.157261,-73.991968 a 3.5171316,3.5225761 0 0 1 -3.543169,3.487476 3.5171316,3.5225761 0 0 1 -3.490878,-3.539979 3.5171316,3.5225761 0 0 1 3.525826,-3.505064 3.5171316,3.5225761 0 0 1 3.508394,3.522565"
       transform="matrix(-0.58042776,0.81431174,-0.81686873,-0.57682361,0,0)" /><path
       style="fill:#ffffff;fill-opacity:1;stroke:none;stroke-width:1.84656;stroke-linecap:round;stroke-linejoin:round;stroke-dasharray:none"
       id="path7165"
       sodipodi:type="arc"
       sodipodi:cx="30.610201"
       sodipodi:cy="-77.094437"
       sodipodi:rx="4.5786614"
       sodipodi:ry="4.5857496"
       sodipodi:start="0.0099365434"
       sodipodi:end="6.2831853"
       sodipodi:open="true"
       sodipodi:arc-type="arc"
       d="m 35.188636,-77.048871 a 4.5786614,4.5857496 0 0 1 -4.612557,4.540057 4.5786614,4.5857496 0 0 1 -4.544483,-4.608406 4.5786614,4.5857496 0 0 1 4.589979,-4.562952 4.5786614,4.5857496 0 0 1 4.567287,4.585735"
       transform="matrix(-0.58042776,0.81431174,-0.81686873,-0.57682361,0,0)" /><path
       style="fill:#ffffff;fill-opacity:1;stroke:none;stroke-width:2.18393;stroke-linecap:round;stroke-linejoin:round;stroke-dasharray:none"
       id="path7167"
       sodipodi:type="arc"
       sodipodi:cx="8.4457932"
       sodipodi:cy="-28.915087"
       sodipodi:rx="4.8451438"
       sodipodi:ry="4.8526444"
       sodipodi:start="0.0099365434"
       sodipodi:end="6.2831853"
       sodipodi:open="true"
       sodipodi:arc-type="arc"
       d="m 13.290698,-28.866869 a 4.8451438,4.8526444 0 0 1 -4.8810125,4.804292 4.8451438,4.8526444 0 0 1 -4.8089763,-4.876619 4.8451438,4.8526444 0 0 1 4.8571199,-4.82852 4.8451438,4.8526444 0 0 1 4.8331079,4.852629"
       transform="matrix(-0.58042776,0.81431174,-0.81686873,-0.57682361,0,0)" /><path
       style="fill:#ffffff;fill-opacity:1;stroke:none;stroke-width:1.92858;stroke-linecap:round;stroke-linejoin:round;stroke-dasharray:none"
       id="path7167-4"
       sodipodi:type="arc"
       sodipodi:cx="5.2933335"
       sodipodi:cy="-48.386345"
       sodipodi:rx="4.278667"
       sodipodi:ry="4.2852902"
       sodipodi:start="0.0099365434"
       sodipodi:end="6.2831853"
       sodipodi:open="true"
       sodipodi:arc-type="arc"
       d="m 9.5717893,-48.343765 a 4.278667,4.2852902 0 0 1 -4.3103418,4.242591 4.278667,4.2852902 0 0 1 -4.2467281,-4.306461 4.278667,4.2852902 0 0 1 4.2892429,-4.263987 4.278667,4.2852902 0 0 1 4.2680382,4.285277"
       transform="matrix(-0.58042776,0.81431174,-0.81686873,-0.57682361,0,0)" /></g></svg>
