<?xml version="1.0" encoding="UTF-8" standalone="no"?>
<!-- Created with Inkscape (http://www.inkscape.org/) -->

<svg
   width="20"
   height="20"
   viewBox="0 0 5.2916668 5.2916668"
   version="1.1"
   id="svg1"
   inkscape:version="1.3 (0e150ed6c4, 2023-07-21)"
   sodipodi:docname="handle_move.svg"
   inkscape:export-filename="handle_move.png"
   inkscape:export-xdpi="96"
   inkscape:export-ydpi="96"
   xmlns:inkscape="http://www.inkscape.org/namespaces/inkscape"
   xmlns:sodipodi="http://sodipodi.sourceforge.net/DTD/sodipodi-0.dtd"
   xmlns="http://www.w3.org/2000/svg"
   xmlns:svg="http://www.w3.org/2000/svg">
  <sodipodi:namedview
     id="namedview1"
     pagecolor="#b9b9b9"
     bordercolor="#eeeeee"
     borderopacity="1"
     inkscape:showpageshadow="0"
     inkscape:pageopacity="0"
     inkscape:pagecheckerboard="0"
     inkscape:deskcolor="#d1d1d1"
     inkscape:document-units="mm"
     showgrid="true"
     inkscape:zoom="29.8"
     inkscape:cx="5.4530201"
     inkscape:cy="7.6174497"
     inkscape:window-width="1920"
     inkscape:window-height="991"
     inkscape:window-x="-9"
     inkscape:window-y="172"
     inkscape:window-maximized="1"
     inkscape:current-layer="layer1"
     showborder="false">
    <inkscape:grid
       id="grid1"
       units="px"
       originx="0"
       originy="0"
       spacingx="0.052916668"
       spacingy="0.052916668"
       empcolor="#0099e5"
       empopacity="0.30196078"
       color="#0099e5"
       opacity="0.14901961"
       empspacing="5"
       dotted="false"
       gridanglex="30"
       gridanglez="30"
       visible="true" />
  </sodipodi:namedview>
  <defs
     id="defs1" />
  <g
     inkscape:label="Layer 1"
     inkscape:groupmode="layer"
     id="layer1">
    <path
       id="path3"
       style="fill:#000000;stroke:none;stroke-width:0.264583px;stroke-linecap:butt;stroke-linejoin:miter;stroke-opacity:1"
       d="M 0 0 L 0 2.5398966 L 0.79375 1.7461466 L 1.6934367 2.6484172 L 0.79375 3.54552 L 0 2.75177 L 0 5.2916667 L 2.5398966 5.2916667 L 1.7461466 4.4979167 L 2.644283 3.6023641 L 3.5398356 4.4999837 L 2.7460856 5.2937337 L 5.2916667 5.2916667 L 5.2859823 2.7538371 L 4.4922323 3.5475871 L 3.59823 2.651001 L 4.4999837 1.7518311 L 5.2937337 2.5455811 L 5.2916667 0 L 2.7538371 0.0056844076 L 3.5475871 0.79943441 L 2.6473836 1.6975708 L 1.7461466 0.79375 L 2.5398966 0 L 0 0 z " />
    <path
       id="path4"
       style="fill:#ffffff;stroke:none;stroke-width:0.264583px;stroke-linecap:butt;stroke-linejoin:miter;stroke-opacity:1"
       d="M 0.26458333 0.26458333 L 0.26458333 1.9047933 L 0.79375 1.3756266 L 2.0639567 2.6489339 L 0.79375 3.91604 L 0.26458333 3.3868734 L 0.26458333 5.0270833 L 1.9047933 5.0270833 L 1.3756266 4.4979167 L 2.6453166 3.2318441 L 3.9103556 4.4999837 L 3.381189 5.0291504 L 5.0270833 5.0270833 L 5.0213989 3.3884237 L 4.4922323 3.9175903 L 3.22771 2.6504842 L 4.4999837 1.381311 L 5.0291504 1.9104777 L 5.0270833 0.26458333 L 3.3884237 0.27026774 L 3.9175903 0.79943441 L 2.6463501 2.0675741 L 1.3756266 0.79375 L 1.9047933 0.26458333 L 0.26458333 0.26458333 z " />
  </g>
</svg>
