<?xml version="1.0" encoding="UTF-8" standalone="no"?>
<!-- Created with Inkscape (http://www.inkscape.org/) -->

<svg
   width="20"
   height="20"
   viewBox="0 0 5.2916668 5.2916668"
   version="1.1"
   id="svg1"
   inkscape:version="1.3 (0e150ed6c4, 2023-07-21)"
   sodipodi:docname="rotate_bottom_right.svg"
   inkscape:export-filename="rotate_bottom_right.png"
   inkscape:export-xdpi="96"
   inkscape:export-ydpi="96"
   xmlns:inkscape="http://www.inkscape.org/namespaces/inkscape"
   xmlns:sodipodi="http://sodipodi.sourceforge.net/DTD/sodipodi-0.dtd"
   xmlns="http://www.w3.org/2000/svg"
   xmlns:svg="http://www.w3.org/2000/svg">
  <sodipodi:namedview
     id="namedview1"
     pagecolor="#b9b9b9"
     bordercolor="#eeeeee"
     borderopacity="1"
     inkscape:showpageshadow="0"
     inkscape:pageopacity="0"
     inkscape:pagecheckerboard="0"
     inkscape:deskcolor="#d1d1d1"
     inkscape:document-units="mm"
     showgrid="false"
     inkscape:zoom="16"
     inkscape:cx="8.90625"
     inkscape:cy="14.0625"
     inkscape:window-width="1920"
     inkscape:window-height="991"
     inkscape:window-x="-9"
     inkscape:window-y="172"
     inkscape:window-maximized="1"
     inkscape:current-layer="layer1"
     showborder="false">
    <inkscape:grid
       id="grid1"
       units="px"
       originx="0"
       originy="0"
       spacingx="0.052916668"
       spacingy="0.052916668"
       empcolor="#0099e5"
       empopacity="0.30196078"
       color="#0099e5"
       opacity="0.14901961"
       empspacing="5"
       dotted="false"
       gridanglex="30"
       gridanglez="30"
       visible="false" />
  </sodipodi:namedview>
  <defs
     id="defs1" />
  <g
     inkscape:label="Layer 1"
     inkscape:groupmode="layer"
     id="layer1">
    <path
       id="path3"
       style="fill:#000000;stroke:none;stroke-width:0.264583px;stroke-linecap:butt;stroke-linejoin:miter;stroke-opacity:1"
       d="M 5.2394735,1.8515666 3.4401001,0.05219322 1.7988566,1.6939535 v -0.00155 L -5.16784e-4,3.4917765 1.7988566,5.2911499 V 4.1795898 4.1697713 A 2.5476062,2.5476062 0 0 0 4.1175781,1.8515666 h 0.010335 z m -2.5207764,0 A 1.2170833,1.2170833 0 0 1 1.7988566,2.7708903 V 1.8515666 Z" />
    <path
       id="path4"
       style="fill:#ffffff;stroke:none;stroke-width:0.264583px;stroke-linecap:butt;stroke-linejoin:miter;stroke-opacity:1"
       d="m 4.6043701,1.5869832 -1.16427,-1.16426996 -1.16427,1.16426996 h 0.738973 a 1.4816666,1.4816666 0 0 1 0.00103,0.010852 1.4816666,1.4816666 0 0 1 -1.4815633,1.4707113 V 2.3275065 L 0.37000332,3.4917765 1.5342733,4.6560466 V 3.9150065 3.9144897 a 2.3283334,2.3283334 0 0 0 2.3280232,-2.3099365 2.3283334,2.3283334 0 0 0 -0.00103,-0.01757 h 0.00207 z" />
  </g>
</svg>
