<?xml version="1.0" encoding="UTF-8" standalone="no"?>
<!-- Created with Inkscape (http://www.inkscape.org/) -->

<svg
   width="100mm"
   height="50mm"
   viewBox="0 0 100 50"
   version="1.1"
   id="svg5"
   inkscape:version="1.2.2 (732a01da63, 2022-12-09)"
   sodipodi:docname="wallpaper_group_p3m1.svg"
   xmlns:inkscape="http://www.inkscape.org/namespaces/inkscape"
   xmlns:sodipodi="http://sodipodi.sourceforge.net/DTD/sodipodi-0.dtd"
   xmlns="http://www.w3.org/2000/svg"
   xmlns:svg="http://www.w3.org/2000/svg">
  <sodipodi:namedview
     id="namedview7"
     pagecolor="#505050"
     bordercolor="#eeeeee"
     borderopacity="1"
     inkscape:showpageshadow="0"
     inkscape:pageopacity="0"
     inkscape:pagecheckerboard="0"
     inkscape:deskcolor="#505050"
     inkscape:document-units="mm"
     showgrid="false"
     inkscape:zoom="5.6568542"
     inkscape:cx="158.92225"
     inkscape:cy="117.82167"
     inkscape:window-width="1920"
     inkscape:window-height="991"
     inkscape:window-x="-9"
     inkscape:window-y="172"
     inkscape:window-maximized="1"
     inkscape:current-layer="layer1" />
  <defs
     id="defs2" />
  <g
     inkscape:label="Layer 1"
     inkscape:groupmode="layer"
     id="layer1">
    <path
       style="fill:#e9ddaf;stroke:none;stroke-width:1;stroke-linecap:butt;stroke-linejoin:round;stroke-dasharray:none;stroke-opacity:1"
       d="M 15.35,45 38.45,4.9999999 h 46.2 L 61.55,45 Z"
       id="path1017"
       sodipodi:nodetypes="ccccc" />
    <path
       id="path1017-4"
       style="fill:#000000;stroke:none;stroke-width:1;stroke-linecap:butt;stroke-linejoin:round;stroke-dasharray:none;stroke-opacity:1"
       d="M 23.569621 30.767114 L 23.000663 31.752067 L 24.220227 33.8646 L 21.475175 35.449516 L 21.170284 34.921383 L 20.597709 35.913053 L 21.179586 36.920744 L 28.92795 32.447115 L 28.365194 31.471981 L 25.073922 33.372123 L 23.569621 30.767114 z " />
    <path
       id="path1017-0"
       style="fill:#000000;stroke:none;stroke-width:1;stroke-linecap:butt;stroke-linejoin:round;stroke-dasharray:none;stroke-opacity:1"
       d="M 32.868795 39.616187 L 25.120431 44.089815 L 25.64598 44.999837 L 26.790613 44.999837 L 26.542049 44.569373 L 29.287101 42.98394 L 30.450854 44.999837 L 31.58877 44.999837 L 30.140796 42.491463 L 33.432068 40.591321 L 32.868795 39.616187 z " />
    <path
       style="fill:#2a7fff;fill-opacity:1;stroke:none;stroke-width:0.264583px;stroke-linecap:butt;stroke-linejoin:miter;stroke-opacity:1"
       d="M 61.547099,18.334979 38.44995,4.9999997 38.450157,31.635217"
       id="path19549"
       sodipodi:nodetypes="ccc" />
    <path
       style="fill:none;stroke:#ff6600;stroke-width:1;stroke-linecap:butt;stroke-linejoin:miter;stroke-opacity:1;stroke-dasharray:none"
       d="M 38.449998,5 V 44.999999"
       id="path26248" />
    <path
       style="fill:#ff6600;fill-opacity:1;stroke:none;stroke-width:0.600001;stroke-linecap:round;stroke-linejoin:round;stroke-dasharray:none"
       id="path8082"
       sodipodi:type="arc"
       sodipodi:cx="61.547462"
       sodipodi:cy="18.29744"
       sodipodi:rx="3"
       sodipodi:ry="3"
       sodipodi:start="6.0857286"
       sodipodi:end="6.0820515"
       sodipodi:open="true"
       sodipodi:arc-type="arc"
       d="m 64.489169,17.708911 a 3,3 0 0 1 -2.350474,3.529692 3,3 0 0 1 -3.531852,-2.347228 3,3 0 0 1 2.343981,-3.534007 3,3 0 0 1 3.536161,2.34073" />
    <path
       style="fill:none;stroke:#ff6600;stroke-width:1;stroke-linecap:butt;stroke-linejoin:miter;stroke-opacity:1;stroke-dasharray:none"
       d="M 61.549999,44.999999 26.899999,25"
       id="path26250" />
    <path
       style="fill:#ff6600;fill-opacity:1;stroke:none;stroke-width:0.600001;stroke-linecap:round;stroke-linejoin:round;stroke-dasharray:none"
       id="path8082-0"
       sodipodi:type="arc"
       sodipodi:cx="38.450043"
       sodipodi:cy="31.641369"
       sodipodi:rx="3"
       sodipodi:ry="3"
       sodipodi:start="6.0857286"
       sodipodi:end="6.0820515"
       sodipodi:open="true"
       sodipodi:arc-type="arc"
       d="m 41.391749,31.052841 a 3,3 0 0 1 -2.350474,3.529692 3,3 0 0 1 -3.531851,-2.347228 3,3 0 0 1 2.34398,-3.534008 3,3 0 0 1 3.536161,2.340731" />
    <path
       style="fill:none;stroke:#ff6600;stroke-width:1;stroke-linecap:butt;stroke-linejoin:miter;stroke-opacity:1;stroke-dasharray:none"
       d="M 15.35,44.999999 84.649999,5"
       id="path26252" />
    <path
       style="fill:none;stroke:#ff6600;stroke-width:1;stroke-linecap:butt;stroke-linejoin:miter;stroke-opacity:1;stroke-dasharray:none"
       d="M 61.549999,5 V 44.999999"
       id="path26254" />
    <path
       style="fill:none;stroke:#ff6600;stroke-width:1;stroke-linecap:butt;stroke-linejoin:miter;stroke-opacity:1;stroke-dasharray:none"
       d="m 73.099998,25 -34.65,-20"
       id="path26256" />
    <path
       style="fill:none;fill-opacity:1;stroke:#000000;stroke-width:0.600001;stroke-linecap:round;stroke-linejoin:round;stroke-dasharray:none"
       id="path8082-8"
       sodipodi:type="arc"
       sodipodi:cx="61.547462"
       sodipodi:cy="18.297441"
       sodipodi:rx="3"
       sodipodi:ry="3"
       sodipodi:start="6.0857286"
       sodipodi:end="6.0820515"
       sodipodi:open="true"
       sodipodi:arc-type="arc"
       d="m 64.489169,17.708913 a 3,3 0 0 1 -2.350474,3.529692 3,3 0 0 1 -3.531852,-2.347228 3,3 0 0 1 2.343981,-3.534007 3,3 0 0 1 3.536161,2.34073" />
    <path
       style="fill:none;fill-opacity:1;stroke:#000000;stroke-width:0.600001;stroke-linecap:round;stroke-linejoin:round;stroke-dasharray:none"
       id="path8082-0-5"
       sodipodi:type="arc"
       sodipodi:cx="38.450043"
       sodipodi:cy="31.641369"
       sodipodi:rx="3"
       sodipodi:ry="3"
       sodipodi:start="6.0857286"
       sodipodi:end="6.0820515"
       sodipodi:open="true"
       sodipodi:arc-type="arc"
       d="m 41.391749,31.052841 a 3,3 0 0 1 -2.350474,3.529692 3,3 0 0 1 -3.531851,-2.347228 3,3 0 0 1 2.34398,-3.534008 3,3 0 0 1 3.536161,2.340731" />
    <path
       style="fill:none;stroke:#000000;stroke-width:0.6;stroke-linecap:round;stroke-linejoin:miter;stroke-opacity:1;stroke-dasharray:none"
       d="M 61.547464,21.297407 61.5472,18.334979"
       id="path25302" />
    <path
       style="fill:none;stroke:#000000;stroke-width:0.6;stroke-linecap:round;stroke-linejoin:miter;stroke-opacity:1;stroke-dasharray:none"
       d="m 64.186744,16.871191 -2.639597,1.463788"
       id="path25304" />
    <path
       style="fill:none;stroke:#000000;stroke-width:0.6;stroke-linecap:round;stroke-linejoin:miter;stroke-opacity:1;stroke-dasharray:none"
       d="M 61.5472,18.334979 58.937942,16.817437"
       id="path25306" />
    <path
       style="fill:none;stroke:#000000;stroke-width:0.6;stroke-linecap:round;stroke-linejoin:miter;stroke-dasharray:none;stroke-opacity:1"
       d="m 38.450043,28.641369 2.64e-4,2.962428"
       id="path25302-0" />
    <path
       style="fill:none;stroke:#000000;stroke-width:0.6;stroke-linecap:round;stroke-linejoin:miter;stroke-dasharray:none;stroke-opacity:1"
       d="M 35.850757,33.139272 38.45036,31.603797"
       id="path25304-4"
       sodipodi:nodetypes="cc" />
    <path
       style="fill:none;stroke:#000000;stroke-width:0.6;stroke-linecap:round;stroke-linejoin:miter;stroke-dasharray:none;stroke-opacity:1"
       d="m 38.450307,31.603797 2.609258,1.517542"
       id="path25306-1" />
    <text
       xml:space="preserve"
       style="font-style:normal;font-weight:normal;font-size:12.5337px;line-height:1.25;font-family:sans-serif;fill:#000000;fill-opacity:1;stroke:none;stroke-width:0.313342"
       x="41.282127"
       y="22.947397"
       id="text2037-5"
       inkscape:transform-center-x="16.564643"
       inkscape:transform-center-y="0.16405737"><tspan
         sodipodi:role="line"
         id="tspan2035-38"
         style="stroke-width:0.313342"
         x="41.282127"
         y="22.947397">F</tspan></text>
    <text
       xml:space="preserve"
       style="font-style:normal;font-weight:normal;font-size:12.5337px;line-height:1.25;font-family:sans-serif;fill:#000000;fill-opacity:1;stroke:none;stroke-width:0.313342"
       x="-5.2337842"
       y="-57.951107"
       id="text2037-5-1"
       inkscape:transform-center-x="8.2611357"
       inkscape:transform-center-y="14.215571"
       transform="matrix(0.5,-0.8660254,-0.8660254,-0.5,0,0)"><tspan
         sodipodi:role="line"
         id="tspan2035-38-1"
         style="stroke-width:0.313342"
         x="-5.2337842"
         y="-57.951107">F</tspan></text>
    <path
       id="path26907"
       style="font-size:12.5337px;line-height:1.25;stroke-width:0.313342"
       d="M 69.441239 30.278255 L 68.588062 30.770732 L 69.17769 31.792375 L 69.746647 30.806905 L 69.441239 30.278255 z M 65.72312 32.148942 L 64.864775 32.645036 L 66.774736 35.952844 L 67.34731 34.96169 L 65.72312 32.148942 z " />
    <path
       id="path26904"
       style="font-size:12.5337px;line-height:1.25;stroke-width:0.313342"
       d="M 75.506502 13.882357 L 75.506502 14.874028 L 78.948153 14.874028 L 79.520728 13.882357 L 75.506502 13.882357 z M 75.744731 18.04386 L 75.744731 19.029329 L 76.548299 19.029329 L 77.117257 18.04386 L 75.744731 18.04386 z " />
    <path
       id="path26901"
       style="font-size:12.5337px;line-height:1.25;stroke-width:0.313342"
       d="M 68.282137 5.0002116 L 67.991199 5.5040568 L 68.844377 5.9965332 L 69.419535 5.0002116 L 68.282137 5.0002116 z M 73.080294 5.0002116 L 71.470573 7.7886719 L 72.329435 8.2842489 L 74.224927 5.0002116 L 73.080294 5.0002116 z " />
    <path
       id="path26910"
       style="font-size:12.5337px;line-height:1.25;stroke-width:0.313342"
       d="M 43.940987 39.450822 L 43.377714 40.425956 L 46.668986 42.326099 L 45.125411 44.999837 L 46.263326 44.999837 L 47.522681 42.819092 L 50.267733 44.404008 L 49.923568 44.999837 L 51.068717 44.999837 L 51.689351 43.924451 L 43.940987 39.450822 z " />
    <path
       id="path26919"
       style="font-size:12.5337px;line-height:1.25;stroke-width:0.313342"
       d="M 33.351969 13.828097 L 32.778878 14.819767 L 33.194873 14.819767 L 33.194873 17.9896 L 30.948499 17.9896 L 30.379541 18.975069 L 33.194873 18.975069 L 33.194873 22.775871 L 34.320903 22.775871 L 34.320903 13.828097 L 33.351969 13.828097 z " />
    <path
       style="fill:none;stroke:#000000;stroke-width:1;stroke-linecap:butt;stroke-linejoin:round;stroke-dasharray:none;stroke-opacity:1"
       d="M 15.35,45 38.45,5 h 46.2 l -23.1,40 z"
       id="path1017-2"
       sodipodi:nodetypes="ccccc" />
    <path
       id="path26898"
       style="font-size:12.5337px;line-height:1.25;stroke-width:0.313342;fill:#000000"
       d="M 48.768083 5.0002116 L 50.759692 8.4496134 L 51.618555 7.9535197 L 49.913749 5.0002116 L 48.768083 5.0002116 z M 53.573991 5.0002116 L 54.244751 6.1618978 L 55.097929 5.6694214 L 54.711389 5.0002116 L 53.573991 5.0002116 z " />
    <path
       style="fill:none;stroke:#000000;stroke-width:1;stroke-linecap:round;stroke-linejoin:round;stroke-dasharray:none;stroke-opacity:1"
       d="m 15.360125,46.5 h 46.077216 l -2,2"
       id="path9149"
       sodipodi:nodetypes="ccc" />
    <path
       style="fill:none;stroke:#000000;stroke-width:0.3;stroke-linecap:round;stroke-linejoin:miter;stroke-dasharray:none;stroke-opacity:1"
       d="m 38.685972,47.392818 c 0.484841,0.184701 0.761893,1.800839 0.761893,1.800839 l 1.004314,-1.720033"
       id="path10153"
       sodipodi:nodetypes="ccc" />
    <path
       style="fill:none;stroke:#000000;stroke-width:0.3;stroke-linecap:round;stroke-linejoin:miter;stroke-dasharray:none;stroke-opacity:1"
       d="m 40.147838,49.296971 -0.06506,0.508511"
       id="path10155"
       sodipodi:nodetypes="cc" />
    <path
       style="fill:none;stroke:#000000;stroke-width:0.3;stroke-linecap:round;stroke-linejoin:miter;stroke-dasharray:none;stroke-opacity:1"
       d="m 21.480974,23.247237 c 0.484841,0.184701 0.761894,1.800839 0.761894,1.800839 l 1.004314,-1.720033"
       id="path10153-0"
       sodipodi:nodetypes="ccc" />
    <path
       style="fill:none;stroke:#000000;stroke-width:0.3;stroke-linecap:round;stroke-linejoin:round;stroke-dasharray:none;stroke-opacity:1"
       d="m 22.752204,25.069855 c 0.155092,-0.171417 0.371404,-0.163254 0.420381,0.0082 0.04898,0.171417 -0.4163,0.53874 -0.4163,0.53874 0,0 0.163857,0.0436 0.451546,-0.0053"
       id="path11354"
       sodipodi:nodetypes="cccc" />
    <path
       style="fill:none;stroke:#000000;stroke-width:1;stroke-linecap:round;stroke-linejoin:round;stroke-dasharray:none;stroke-opacity:1"
       d="M 13.86,44.24242 36.665594,4.8199709 33.931372,5.5438679"
       id="path9149-8"
       sodipodi:nodetypes="ccc" />
  </g>
</svg>
