<?xml version="1.0" encoding="UTF-8" standalone="no"?>
<!-- Created with Inkscape (http://www.inkscape.org/) -->

<svg
   width="100mm"
   height="50mm"
   viewBox="0 0 100 50"
   version="1.1"
   id="svg5"
   inkscape:version="1.2.2 (732a01da63, 2022-12-09)"
   sodipodi:docname="wallpaper_group_p2.svg"
   xmlns:inkscape="http://www.inkscape.org/namespaces/inkscape"
   xmlns:sodipodi="http://sodipodi.sourceforge.net/DTD/sodipodi-0.dtd"
   xmlns="http://www.w3.org/2000/svg"
   xmlns:svg="http://www.w3.org/2000/svg">
  <sodipodi:namedview
     id="namedview7"
     pagecolor="#505050"
     bordercolor="#eeeeee"
     borderopacity="1"
     inkscape:showpageshadow="0"
     inkscape:pageopacity="0"
     inkscape:pagecheckerboard="0"
     inkscape:deskcolor="#505050"
     inkscape:document-units="mm"
     showgrid="false"
     inkscape:zoom="4.051698"
     inkscape:cx="116.74118"
     inkscape:cy="106.00494"
     inkscape:window-width="3200"
     inkscape:window-height="1711"
     inkscape:window-x="2391"
     inkscape:window-y="-9"
     inkscape:window-maximized="1"
     inkscape:current-layer="layer1" />
  <defs
     id="defs2" />
  <g
     inkscape:label="Layer 1"
     inkscape:groupmode="layer"
     id="layer1">
    <path
       style="fill:#e9ddaf;stroke:none;stroke-width:1;stroke-linecap:butt;stroke-linejoin:round;stroke-dasharray:none;stroke-opacity:1"
       d="M 5,45 25,5 H 95 L 75,45 Z"
       id="path1017"
       sodipodi:nodetypes="ccccc" />
    <path
       style="fill:#2a7fff;stroke:none;stroke-width:1;stroke-linecap:butt;stroke-linejoin:round;stroke-dasharray:none;stroke-opacity:1;fill-opacity:1"
       d="M 5.0000003,45 15,25 H 85 L 75,45 Z"
       id="path1017-1"
       sodipodi:nodetypes="ccccc" />
    <path
       style="fill:#ffffff;fill-opacity:0;stroke-width:1;stroke-linecap:round;stroke-linejoin:round"
       id="path7968"
       sodipodi:type="arc"
       sodipodi:cx="45.251865"
       sodipodi:cy="25.073227"
       sodipodi:rx="5.7257462"
       sodipodi:ry="4.5713615"
       sodipodi:start="0.0099365434"
       sodipodi:end="5.9964402"
       sodipodi:arc-type="slice"
       d="m 50.977329,25.11865 a 5.7257462,4.5713615 0 0 1 -5.35793,4.516511 5.7257462,4.5713615 0 0 1 -6.038527,-3.931256 5.7257462,4.5713615 0 0 1 4.462991,-5.099143 5.7257462,4.5713615 0 0 1 6.699964,3.175539 l -5.491962,1.292926 z" />
    <text
       xml:space="preserve"
       style="font-style:normal;font-weight:normal;font-size:12.5337px;line-height:1.25;font-family:sans-serif;fill:#000000;fill-opacity:1;stroke:none;stroke-width:0.313342"
       x="40.241074"
       y="41.598698"
       id="text2037"><tspan
         sodipodi:role="line"
         id="tspan2035"
         style="stroke-width:0.313342"
         x="40.241074"
         y="41.598698">F</tspan></text>
    <text
       xml:space="preserve"
       style="font-style:normal;font-weight:normal;font-size:12.5337px;line-height:1.25;font-family:sans-serif;fill:#000000;fill-opacity:1;stroke:none;stroke-width:0.313342"
       x="-58.179615"
       y="-8.1295567"
       id="text2037-1"
       transform="scale(-1)"><tspan
         sodipodi:role="line"
         id="tspan2035-1"
         style="stroke-width:0.313342"
         x="-58.179615"
         y="-8.1295567">F</tspan></text>
    <path
       style="fill:none;stroke:#000000;stroke-width:1;stroke-linecap:butt;stroke-linejoin:round;stroke-dasharray:none;stroke-opacity:1"
       d="M 5,45 25,5 H 95 L 75,45 Z"
       id="path1017-2"
       sodipodi:nodetypes="ccccc" />
    <path
       style="fill:#ff6600;fill-opacity:1;stroke:none;stroke-width:0.6;stroke-linecap:round;stroke-linejoin:round;stroke-dasharray:none"
       id="path8082-5"
       sodipodi:type="arc"
       sodipodi:cx="50"
       sodipodi:cy="25"
       sodipodi:rx="3"
       sodipodi:ry="3"
       sodipodi:start="6.0857286"
       sodipodi:end="6.0820515"
       sodipodi:open="true"
       sodipodi:arc-type="arc"
       d="m 52.941706,24.411472 a 3,3 0 0 1 -2.350474,3.529692 3,3 0 0 1 -3.531851,-2.347228 3,3 0 0 1 2.34398,-3.534008 3,3 0 0 1 3.536161,2.340731" />
    <path
       style="fill:none;stroke:#000000;stroke-width:0.6;stroke-linecap:round;stroke-linejoin:miter;stroke-dasharray:none;stroke-opacity:1"
       d="m 47,25 h 6"
       id="path86676"
       sodipodi:nodetypes="cc" />
    <path
       style="fill:none;fill-opacity:1;stroke:#000000;stroke-width:0.6;stroke-linecap:round;stroke-linejoin:round;stroke-dasharray:none"
       id="path8082-4"
       sodipodi:type="arc"
       sodipodi:cx="50"
       sodipodi:cy="25"
       sodipodi:rx="3"
       sodipodi:ry="3"
       sodipodi:start="6.0857286"
       sodipodi:end="6.0820515"
       sodipodi:open="true"
       sodipodi:arc-type="arc"
       d="m 52.941706,24.411472 a 3,3 0 0 1 -2.350474,3.529692 3,3 0 0 1 -3.531851,-2.347228 3,3 0 0 1 2.34398,-3.534008 3,3 0 0 1 3.536161,2.340731" />
    <path
       style="fill:none;stroke:#000000;stroke-width:1;stroke-linecap:round;stroke-linejoin:round;stroke-dasharray:none;stroke-opacity:1"
       d="m 5,46.5 h 69.95586 l -2,2"
       id="path9149"
       sodipodi:nodetypes="ccc" />
    <path
       style="fill:none;stroke:#000000;stroke-width:1;stroke-linecap:round;stroke-linejoin:round;stroke-dasharray:none;stroke-opacity:1"
       d="M 3.25,45 23.286146,4.9999642 20.604138,5.8982016"
       id="path9149-8"
       sodipodi:nodetypes="ccc" />
    <path
       style="fill:none;stroke:#000000;stroke-width:0.3;stroke-linecap:round;stroke-linejoin:miter;stroke-dasharray:none;stroke-opacity:1"
       d="m 37.35822,47.3413 c 0.484841,0.184701 0.761894,1.800839 0.761894,1.800839 l 1.004314,-1.720033"
       id="path10153"
       sodipodi:nodetypes="ccc" />
    <path
       style="fill:none;stroke:#000000;stroke-width:0.3;stroke-linecap:round;stroke-linejoin:miter;stroke-dasharray:none;stroke-opacity:1"
       d="m 38.820087,49.245453 -0.06506,0.508511"
       id="path10155"
       sodipodi:nodetypes="cc" />
    <path
       style="fill:none;stroke:#000000;stroke-width:0.3;stroke-linecap:round;stroke-linejoin:miter;stroke-dasharray:none;stroke-opacity:1"
       d="m 9.929613,22.947185 c 0.484841,0.184701 0.761894,1.800839 0.761894,1.800839 l 1.004314,-1.720033"
       id="path10153-0"
       sodipodi:nodetypes="ccc" />
    <path
       style="fill:none;stroke:#000000;stroke-width:0.3;stroke-linecap:round;stroke-linejoin:round;stroke-dasharray:none;stroke-opacity:1"
       d="m 11.200843,24.769803 c 0.155092,-0.171417 0.371404,-0.163254 0.420381,0.0082 0.04898,0.171417 -0.4163,0.53874 -0.4163,0.53874 0,0 0.163857,0.0436 0.451546,-0.0053"
       id="path11354"
       sodipodi:nodetypes="cccc" />
  </g>
</svg>
