<?xml version="1.0" encoding="UTF-8" standalone="no"?>
<!-- Created with Inkscape (http://www.inkscape.org/) -->

<svg
   width="100mm"
   height="50mm"
   viewBox="0 0 100 50"
   version="1.1"
   id="svg5"
   inkscape:version="1.2.2 (732a01da63, 2022-12-09)"
   sodipodi:docname="wallpaper_group_p3.svg"
   xmlns:inkscape="http://www.inkscape.org/namespaces/inkscape"
   xmlns:sodipodi="http://sodipodi.sourceforge.net/DTD/sodipodi-0.dtd"
   xmlns="http://www.w3.org/2000/svg"
   xmlns:svg="http://www.w3.org/2000/svg">
  <sodipodi:namedview
     id="namedview7"
     pagecolor="#505050"
     bordercolor="#eeeeee"
     borderopacity="1"
     inkscape:showpageshadow="0"
     inkscape:pageopacity="0"
     inkscape:pagecheckerboard="0"
     inkscape:deskcolor="#505050"
     inkscape:document-units="mm"
     showgrid="false"
     inkscape:zoom="5.6568543"
     inkscape:cx="210.8946"
     inkscape:cy="111.10415"
     inkscape:window-width="3200"
     inkscape:window-height="1711"
     inkscape:window-x="2391"
     inkscape:window-y="-9"
     inkscape:window-maximized="1"
     inkscape:current-layer="layer1" />
  <defs
     id="defs2" />
  <g
     inkscape:label="Layer 1"
     inkscape:groupmode="layer"
     id="layer1">
    <path
       style="fill:#e9ddaf;stroke:none;stroke-width:1;stroke-linecap:butt;stroke-linejoin:round;stroke-dasharray:none;stroke-opacity:1"
       d="M 15.35,45 38.45,4.9999999 h 46.2 L 61.55,45 Z"
       id="path1017"
       sodipodi:nodetypes="ccccc" />
    <path
       id="path1017-1"
       style="fill:#000000;stroke:none;stroke-width:1;stroke-linecap:butt;stroke-linejoin:round;stroke-dasharray:none;stroke-opacity:1"
       d="M 72.526839 22.758818 L 71.673661 23.251811 L 72.891675 25.361243 L 73.460632 24.375773 L 72.526839 22.758818 z M 68.80872 24.630021 L 67.950374 25.125598 L 70.45048 29.456083 L 70.565202 29.389937 L 71.691748 27.438635 L 70.746069 27.984855 L 68.80872 24.630021 z " />
    <path
       id="path1017-7"
       style="fill:#000000;stroke:none;stroke-width:1;stroke-linecap:butt;stroke-linejoin:round;stroke-dasharray:none;stroke-opacity:1"
       d="M 35.807633 40.528276 L 35.244877 41.50341 L 38.536149 43.404069 L 37.614758 44.999837 L 38.752157 44.999837 L 39.389327 43.896545 L 41.300321 44.999837 L 43.552897 44.999837 L 35.807633 40.528276 z " />
    <path
       id="path1017-4"
       style="fill:#000000;stroke:none;stroke-width:1;stroke-linecap:butt;stroke-linejoin:round;stroke-dasharray:none;stroke-opacity:1"
       d="M 60.846932 5.0002116 L 59.892985 6.6523071 L 60.74668 7.1447835 L 61.984847 5.0002116 L 60.846932 5.0002116 z M 64.302535 5.0002116 L 65.309709 5.5815715 L 63.372359 8.9369222 L 64.231222 9.4324992 L 66.731327 5.1025309 L 66.554077 5.0002116 L 64.302535 5.0002116 z " />
    <path
       style="fill:none;stroke:#c8ab37;stroke-width:0.2;stroke-linecap:round;stroke-linejoin:miter;stroke-opacity:1;stroke-dasharray:none"
       d="M 84.649999,4.9999997 15.35,44.999999"
       id="path16937" />
    <path
       style="fill:#2a7fff;stroke:none;stroke-width:0.264583px;stroke-linecap:butt;stroke-linejoin:miter;stroke-opacity:1;fill-opacity:1"
       d="M 61.549999,44.999999 61.547147,18.334979 38.449998,4.9999997 38.45005,31.666637 61.549999,44.999999"
       id="path19549"
       sodipodi:nodetypes="ccccc" />
    <path
       style="fill:#ff6600;fill-opacity:1;stroke:none;stroke-width:0.600001;stroke-linecap:round;stroke-linejoin:round;stroke-dasharray:none"
       id="path8082"
       sodipodi:type="arc"
       sodipodi:cx="61.547462"
       sodipodi:cy="18.29744"
       sodipodi:rx="3"
       sodipodi:ry="3"
       sodipodi:start="6.0857286"
       sodipodi:end="6.0820515"
       sodipodi:open="true"
       sodipodi:arc-type="arc"
       d="m 64.489169,17.708911 a 3,3 0 0 1 -2.350474,3.529692 3,3 0 0 1 -3.531852,-2.347228 3,3 0 0 1 2.343981,-3.534007 3,3 0 0 1 3.536161,2.34073" />
    <path
       style="fill:#ff6600;fill-opacity:1;stroke:none;stroke-width:0.600001;stroke-linecap:round;stroke-linejoin:round;stroke-dasharray:none"
       id="path8082-0"
       sodipodi:type="arc"
       sodipodi:cx="38.450043"
       sodipodi:cy="31.641369"
       sodipodi:rx="3"
       sodipodi:ry="3"
       sodipodi:start="6.0857286"
       sodipodi:end="6.0820515"
       sodipodi:open="true"
       sodipodi:arc-type="arc"
       d="m 41.391749,31.052841 a 3,3 0 0 1 -2.350474,3.529692 3,3 0 0 1 -3.531851,-2.347228 3,3 0 0 1 2.34398,-3.534008 3,3 0 0 1 3.536161,2.340731" />
    <path
       style="fill:none;fill-opacity:1;stroke:#000000;stroke-width:0.600001;stroke-linecap:round;stroke-linejoin:round;stroke-dasharray:none"
       id="path8082-8"
       sodipodi:type="arc"
       sodipodi:cx="61.547462"
       sodipodi:cy="18.297441"
       sodipodi:rx="3"
       sodipodi:ry="3"
       sodipodi:start="6.0857286"
       sodipodi:end="6.0820515"
       sodipodi:open="true"
       sodipodi:arc-type="arc"
       d="m 64.489169,17.708913 a 3,3 0 0 1 -2.350474,3.529692 3,3 0 0 1 -3.531852,-2.347228 3,3 0 0 1 2.343981,-3.534007 3,3 0 0 1 3.536161,2.34073" />
    <path
       style="fill:none;fill-opacity:1;stroke:#000000;stroke-width:0.600001;stroke-linecap:round;stroke-linejoin:round;stroke-dasharray:none"
       id="path8082-0-5"
       sodipodi:type="arc"
       sodipodi:cx="38.450043"
       sodipodi:cy="31.641369"
       sodipodi:rx="3"
       sodipodi:ry="3"
       sodipodi:start="6.0857286"
       sodipodi:end="6.0820515"
       sodipodi:open="true"
       sodipodi:arc-type="arc"
       d="m 41.391749,31.052841 a 3,3 0 0 1 -2.350474,3.529692 3,3 0 0 1 -3.531851,-2.347228 3,3 0 0 1 2.34398,-3.534008 3,3 0 0 1 3.536161,2.340731" />
    <path
       style="fill:none;stroke:#000000;stroke-width:0.6;stroke-linecap:round;stroke-linejoin:miter;stroke-opacity:1;stroke-dasharray:none"
       d="M 61.547464,21.297407 61.5472,18.334979"
       id="path25302" />
    <path
       style="fill:none;stroke:#000000;stroke-width:0.6;stroke-linecap:round;stroke-linejoin:miter;stroke-opacity:1;stroke-dasharray:none"
       d="m 64.186744,16.871191 -2.639597,1.463788"
       id="path25304" />
    <path
       style="fill:none;stroke:#000000;stroke-width:0.6;stroke-linecap:round;stroke-linejoin:miter;stroke-opacity:1;stroke-dasharray:none"
       d="M 61.5472,18.334979 58.937942,16.817437"
       id="path25306" />
    <path
       style="fill:none;stroke:#000000;stroke-width:0.6;stroke-linecap:round;stroke-linejoin:miter;stroke-dasharray:none;stroke-opacity:1"
       d="m 38.450043,28.641369 2.64e-4,2.962428"
       id="path25302-0" />
    <path
       style="fill:none;stroke:#000000;stroke-width:0.6;stroke-linecap:round;stroke-linejoin:miter;stroke-dasharray:none;stroke-opacity:1"
       d="M 35.850757,33.139272 38.45036,31.603797"
       id="path25304-4"
       sodipodi:nodetypes="cc" />
    <path
       style="fill:none;stroke:#000000;stroke-width:0.6;stroke-linecap:round;stroke-linejoin:miter;stroke-dasharray:none;stroke-opacity:1"
       d="m 38.450307,31.603797 2.609258,1.517542"
       id="path25306-1" />
    <text
       xml:space="preserve"
       style="font-style:normal;font-weight:normal;font-size:12.5337px;line-height:1.25;font-family:sans-serif;fill:#000000;fill-opacity:1;stroke:none;stroke-width:0.313342"
       x="46.282127"
       y="29.447397"
       id="text2037-5"
       inkscape:transform-center-x="-11.544944"
       inkscape:transform-center-y="-6.6389323"><tspan
         sodipodi:role="line"
         id="tspan2035-38"
         style="stroke-width:0.313342"
         x="46.282127"
         y="29.447397">F</tspan></text>
    <path
       id="path25461"
       style="font-size:12.5337px;line-height:1.25;stroke-width:0.313342"
       d="M 31.494202 23.886914 L 28.20293 25.787056 L 27.32443 24.265186 L 26.755473 25.250138 L 27.349752 26.28005 L 25.565881 27.309961 L 24.439852 29.259713 L 32.057475 24.862048 L 31.494202 23.886914 z " />
    <path
       style="fill:none;stroke:#000000;stroke-width:1;stroke-linecap:butt;stroke-linejoin:round;stroke-dasharray:none;stroke-opacity:1"
       d="M 15.35,45 38.45,5 h 46.2 l -23.1,40 z"
       id="path1017-2"
       sodipodi:nodetypes="ccccc" />
    <path
       style="fill:none;stroke:#000000;stroke-width:1;stroke-linecap:round;stroke-linejoin:round;stroke-dasharray:none;stroke-opacity:1"
       d="m 15.360125,46.5 h 46.077216 l -2,2"
       id="path9149"
       sodipodi:nodetypes="ccc" />
    <path
       style="fill:none;stroke:#000000;stroke-width:0.3;stroke-linecap:round;stroke-linejoin:miter;stroke-dasharray:none;stroke-opacity:1"
       d="m 38.685972,47.392818 c 0.484841,0.184701 0.761893,1.800839 0.761893,1.800839 l 1.004314,-1.720033"
       id="path10153"
       sodipodi:nodetypes="ccc" />
    <path
       style="fill:none;stroke:#000000;stroke-width:0.3;stroke-linecap:round;stroke-linejoin:miter;stroke-dasharray:none;stroke-opacity:1"
       d="m 40.147838,49.296971 -0.06506,0.508511"
       id="path10155"
       sodipodi:nodetypes="cc" />
    <path
       style="fill:none;stroke:#000000;stroke-width:0.3;stroke-linecap:round;stroke-linejoin:miter;stroke-dasharray:none;stroke-opacity:1"
       d="m 21.480974,23.247237 c 0.484841,0.184701 0.761894,1.800839 0.761894,1.800839 l 1.004314,-1.720033"
       id="path10153-0"
       sodipodi:nodetypes="ccc" />
    <path
       style="fill:none;stroke:#000000;stroke-width:0.3;stroke-linecap:round;stroke-linejoin:round;stroke-dasharray:none;stroke-opacity:1"
       d="m 22.752204,25.069855 c 0.155092,-0.171417 0.371404,-0.163254 0.420381,0.0082 0.04898,0.171417 -0.4163,0.53874 -0.4163,0.53874 0,0 0.163857,0.0436 0.451546,-0.0053"
       id="path11354"
       sodipodi:nodetypes="cccc" />
    <path
       style="fill:none;stroke:#000000;stroke-width:1;stroke-linecap:round;stroke-linejoin:round;stroke-dasharray:none;stroke-opacity:1"
       d="M 13.86,44.24242 36.665594,4.8199709 33.931372,5.5438684"
       id="path9149-8"
       sodipodi:nodetypes="ccc" />
  </g>
</svg>
