<?xml version="1.0" encoding="UTF-8" standalone="no"?>
<!-- Created with Inkscape (http://www.inkscape.org/) -->

<svg
   width="100mm"
   height="100mm"
   viewBox="0 0 100 100"
   version="1.1"
   id="svg5"
   inkscape:version="1.2.2 (732a01da63, 2022-12-09)"
   sodipodi:docname="logo.svg"
   xml:space="preserve"
   inkscape:export-filename="logo2.png"
   inkscape:export-xdpi="65.024002"
   inkscape:export-ydpi="65.024002"
   xmlns:inkscape="http://www.inkscape.org/namespaces/inkscape"
   xmlns:sodipodi="http://sodipodi.sourceforge.net/DTD/sodipodi-0.dtd"
   xmlns="http://www.w3.org/2000/svg"
   xmlns:svg="http://www.w3.org/2000/svg"><sodipodi:namedview
     id="namedview7"
     pagecolor="#505050"
     bordercolor="#eeeeee"
     borderopacity="1"
     inkscape:showpageshadow="0"
     inkscape:pageopacity="0"
     inkscape:pagecheckerboard="0"
     inkscape:deskcolor="#505050"
     inkscape:document-units="mm"
     showgrid="false"
     inkscape:zoom="2.025849"
     inkscape:cx="182.63948"
     inkscape:cy="181.89905"
     inkscape:window-width="1920"
     inkscape:window-height="991"
     inkscape:window-x="-9"
     inkscape:window-y="172"
     inkscape:window-maximized="1"
     inkscape:current-layer="layer1" /><defs
     id="defs2" /><g
     inkscape:label="Layer 1"
     inkscape:groupmode="layer"
     id="layer1"><path
       id="path3738"
       style="fill:#800000;stroke:#ffffff;stroke-width:4;stroke-linecap:round;stroke-linejoin:bevel;stroke-dasharray:none"
       d="M 84.767578,5.1992188 C 81.798929,5.9026791 78.915708,6.9766013 76.105859,8.1661641 69.378049,11.085211 63.101717,14.946665 57.113281,19.158203 45.433572,27.561982 34.783546,37.601166 25.600339,48.740879 18.53167,57.381781 12.13851,66.712055 7.7716702,77.02893 6.8633973,79.26667 6.003575,81.546082 5.4088401,83.883201 c -0.00808,1.115814 1.2635712,1.460709 2.0888986,1.697058 10.9717683,3.781984 22.4975343,5.683509 34.0176783,6.811047 12.889243,1.188163 25.912717,1.258272 38.780767,-0.224122 2.98722,-0.382626 5.987893,-0.749711 8.922566,-1.440622 1.088742,-0.563064 0.887735,-1.988571 1.231234,-2.989799 2.625008,-12.777603 3.125964,-25.90012 2.65384,-38.906485 C 92.600498,37.014972 91.225123,25.195186 88.362205,13.707058 87.677302,11.039959 86.971183,8.3616726 86.044511,5.7733399 85.788284,5.3517275 85.242736,5.1656199 84.767578,5.1992188 Z" /><path
       style="fill:none;stroke:#ffffff;stroke-width:4;stroke-linecap:butt;stroke-linejoin:round;stroke-dasharray:none;stroke-opacity:1"
       d="M 69.712385,93.04381 C 71.034418,87.289577 73.24751,77.913883 74.151112,73.967698 81.50477,71.946681 87.707401,70.161 92.897453,69.021811"
       id="path5567"
       sodipodi:nodetypes="ccc" /><path
       style="fill:#ffffff;stroke:none;stroke-width:1.18634;stroke-linecap:round;stroke-linejoin:round;stroke-dasharray:none"
       id="path7143"
       sodipodi:type="arc"
       sodipodi:cx="67.894081"
       sodipodi:cy="-23.795496"
       sodipodi:rx="4.0284524"
       sodipodi:ry="4.0284524"
       sodipodi:start="0.0099365434"
       sodipodi:end="6.2831853"
       sodipodi:open="true"
       sodipodi:arc-type="arc"
       d="m 71.922335,-23.755468 a 4.0284524,4.0284524 0 0 1 -4.058275,3.988313 4.0284524,4.0284524 0 0 1 -3.998382,-4.048355 4.0284524,4.0284524 0 0 1 4.03841,-4.008426 4.0284524,4.0284524 0 0 1 4.018446,4.02844"
       transform="rotate(40.571514)" /><path
       style="fill:#ffffff;stroke:none;stroke-width:1.62473;stroke-linecap:round;stroke-linejoin:round;stroke-dasharray:none"
       id="path7145"
       sodipodi:type="arc"
       sodipodi:cx="90.49337"
       sodipodi:cy="-15.337284"
       sodipodi:rx="3.1829531"
       sodipodi:ry="3.1829531"
       sodipodi:start="0.0099365434"
       sodipodi:end="6.2831853"
       sodipodi:open="true"
       sodipodi:arc-type="arc"
       d="m 93.676166,-15.305657 a 3.1829531,3.1829531 0 0 1 -3.206516,3.151238 3.1829531,3.1829531 0 0 1 -3.159194,-3.198679 3.1829531,3.1829531 0 0 1 3.190821,-3.167129 3.1829531,3.1829531 0 0 1 3.175046,3.182943"
       transform="rotate(40.571514)" /><path
       style="fill:#ffffff;stroke:none;stroke-width:1.97614;stroke-linecap:round;stroke-linejoin:round;stroke-dasharray:none"
       id="path7147"
       sodipodi:type="arc"
       sodipodi:cx="85.206985"
       sodipodi:cy="-28.024601"
       sodipodi:rx="2.8390162"
       sodipodi:ry="2.8390162"
       sodipodi:start="0.0099365434"
       sodipodi:end="6.2831853"
       sodipodi:open="true"
       sodipodi:arc-type="arc"
       d="m 88.045862,-27.996391 a 2.8390162,2.8390162 0 0 1 -2.860034,2.810727 2.8390162,2.8390162 0 0 1 -2.817824,-2.853042 2.8390162,2.8390162 0 0 1 2.846034,-2.824902 2.8390162,2.8390162 0 0 1 2.831964,2.839007"
       transform="rotate(40.571514)" /><path
       style="fill:#ffffff;stroke:none;stroke-width:1.39281;stroke-linecap:round;stroke-linejoin:round;stroke-dasharray:none"
       id="path7151"
       sodipodi:type="arc"
       sodipodi:cx="73.180466"
       sodipodi:cy="8.8479147"
       sodipodi:rx="2.3647859"
       sodipodi:ry="2.3647859"
       sodipodi:start="0.0099365434"
       sodipodi:end="6.2831853"
       sodipodi:open="true"
       sodipodi:arc-type="arc"
       d="M 75.545135,8.8714121 A 2.3647859,2.3647859 0 0 1 73.162843,11.212635 2.3647859,2.3647859 0 0 1 70.815709,8.8361659 2.3647859,2.3647859 0 0 1 73.18634,6.4831361 2.3647859,2.3647859 0 0 1 75.545252,8.8479147"
       transform="rotate(40.571514)" /><path
       style="fill:#ffffff;stroke:none;stroke-width:1.01191;stroke-linecap:round;stroke-linejoin:round;stroke-dasharray:none"
       id="path7153"
       sodipodi:type="arc"
       sodipodi:cx="77.145256"
       sodipodi:cy="6.9976811"
       sodipodi:rx="1.8502337"
       sodipodi:ry="1.8502337"
       sodipodi:start="0.0099365434"
       sodipodi:end="6.2831853"
       sodipodi:open="true"
       sodipodi:arc-type="arc"
       d="M 78.995398,7.0160658 A 1.8502337,1.8502337 0 0 1 77.131467,8.8478634 1.8502337,1.8502337 0 0 1 75.295045,6.9884887 1.8502337,1.8502337 0 0 1 77.149852,5.1474532 1.8502337,1.8502337 0 0 1 78.99549,6.9976811"
       transform="rotate(40.571514)" /><path
       style="fill:#ffffff;stroke:none;stroke-width:1.60381;stroke-linecap:round;stroke-linejoin:round;stroke-dasharray:none"
       id="path7159"
       sodipodi:type="arc"
       sodipodi:cx="81.242203"
       sodipodi:cy="4.750967"
       sodipodi:rx="2.7230408"
       sodipodi:ry="2.7230408"
       sodipodi:start="0.0099365434"
       sodipodi:end="6.2831853"
       sodipodi:open="true"
       sodipodi:arc-type="arc"
       d="M 83.965109,4.7780242 A 2.7230408,2.7230408 0 0 1 81.22191,7.4739322 2.7230408,2.7230408 0 0 1 78.519196,4.7374383 2.7230408,2.7230408 0 0 1 81.248967,2.0279346 2.7230408,2.7230408 0 0 1 83.965244,4.750967"
       transform="rotate(40.571514)" /><path
       style="fill:#ffffff;fill-opacity:0.5;stroke:none;stroke-width:1.336;stroke-linecap:round;stroke-linejoin:round;stroke-dasharray:none"
       id="path7163"
       sodipodi:type="arc"
       sodipodi:cx="74.898544"
       sodipodi:cy="20.345797"
       sodipodi:rx="4.1876874"
       sodipodi:ry="4.1876874"
       sodipodi:start="0.0099365434"
       sodipodi:end="6.2831853"
       sodipodi:open="true"
       sodipodi:arc-type="arc"
       d="m 79.086025,20.387407 a 4.1876874,4.1876874 0 0 1 -4.218689,4.145961 4.1876874,4.1876874 0 0 1 -4.156427,-4.208377 4.1876874,4.1876874 0 0 1 4.198038,-4.166869 4.1876874,4.1876874 0 0 1 4.177285,4.187675"
       transform="rotate(40.571514)" /><path
       style="fill:#ffffff;stroke:none;stroke-width:1.53293;stroke-linecap:round;stroke-linejoin:round;stroke-dasharray:none"
       id="path7165"
       sodipodi:type="arc"
       sodipodi:cx="89.436096"
       sodipodi:cy="33.561752"
       sodipodi:rx="3.8039417"
       sodipodi:ry="3.8039417"
       sodipodi:start="0.0099365434"
       sodipodi:end="6.2831853"
       sodipodi:open="true"
       sodipodi:arc-type="arc"
       d="m 93.23985,33.59955 a 3.8039417,3.8039417 0 0 1 -3.832102,3.766038 3.8039417,3.8039417 0 0 1 -3.775547,-3.822735 3.8039417,3.8039417 0 0 1 3.813345,-3.785031 3.8039417,3.8039417 0 0 1 3.794492,3.80393"
       transform="rotate(40.571514)" /><path
       style="fill:#ffffff;stroke:none;stroke-width:1.29661;stroke-linecap:round;stroke-linejoin:round;stroke-dasharray:none"
       id="path7167"
       sodipodi:type="arc"
       sodipodi:cx="62.47554"
       sodipodi:cy="32.240154"
       sodipodi:rx="2.8788252"
       sodipodi:ry="2.8788252"
       sodipodi:start="0.0099365434"
       sodipodi:end="6.2831853"
       sodipodi:open="true"
       sodipodi:arc-type="arc"
       d="m 65.354223,32.268759 a 2.8788252,2.8788252 0 0 1 -2.900137,2.850141 2.8788252,2.8788252 0 0 1 -2.857335,-2.893048 2.8788252,2.8788252 0 0 1 2.885941,-2.864514 2.8788252,2.8788252 0 0 1 2.871673,2.878816"
       transform="rotate(40.571514)" /></g></svg>
