<?xml version="1.0" encoding="UTF-8" standalone="no"?>
<!-- Created with Inkscape (http://www.inkscape.org/) -->

<svg
   width="100mm"
   height="100mm"
   viewBox="0 0 100 100"
   version="1.1"
   id="svg5"
   inkscape:version="1.2.2 (732a01da63, 2022-12-09)"
   sodipodi:docname="logo4.svg"
   xml:space="preserve"
   inkscape:export-filename="logo3.png"
   inkscape:export-xdpi="65.024002"
   inkscape:export-ydpi="65.024002"
   xmlns:inkscape="http://www.inkscape.org/namespaces/inkscape"
   xmlns:sodipodi="http://sodipodi.sourceforge.net/DTD/sodipodi-0.dtd"
   xmlns="http://www.w3.org/2000/svg"
   xmlns:svg="http://www.w3.org/2000/svg"><sodipodi:namedview
     id="namedview7"
     pagecolor="#505050"
     bordercolor="#eeeeee"
     borderopacity="1"
     inkscape:showpageshadow="0"
     inkscape:pageopacity="0"
     inkscape:pagecheckerboard="0"
     inkscape:deskcolor="#505050"
     inkscape:document-units="mm"
     showgrid="false"
     inkscape:zoom="1.2244953"
     inkscape:cx="394.03988"
     inkscape:cy="166.19091"
     inkscape:window-width="3200"
     inkscape:window-height="1711"
     inkscape:window-x="2391"
     inkscape:window-y="-9"
     inkscape:window-maximized="1"
     inkscape:current-layer="layer1" /><defs
     id="defs2" /><g
     inkscape:label="Layer 1"
     inkscape:groupmode="layer"
     id="layer1"><path
       id="path3738"
       style="fill:#800000;fill-opacity:1;stroke:#ffffff;stroke-width:5;stroke-linecap:round;stroke-linejoin:bevel;stroke-dasharray:none;stroke-opacity:1"
       d="m 14.624716,6.1134446 c 2.968649,0.7034603 5.85187,1.7773825 8.661719,2.9669453 6.72781,2.9190471 13.004142,6.7805011 18.992579,10.9920391 11.679709,8.403779 22.329734,18.442963 31.512941,29.582676 7.068669,8.640902 13.461829,17.971176 17.828669,28.288051 0.908273,2.23774 1.768095,4.517152 2.36283,6.854271 0.0081,1.115814 -1.263571,1.460709 -2.088898,1.697058 C 80.922787,90.276469 69.397021,92.177994 57.876877,93.305532 44.987635,94.493695 31.96416,94.563804 19.09611,93.08141 16.10889,92.698784 13.108217,92.331699 10.173544,91.640788 9.0848023,91.077724 9.2858093,89.652217 8.9423103,88.650989 6.3173023,75.873386 5.8163463,62.750869 6.2884703,49.744504 c 0.503326,-11.815306 1.878701,-23.635092 4.7416187,-35.12322 0.684903,-2.667099 1.391022,-5.3453856 2.317694,-7.9337183 0.256227,-0.4216124 0.801775,-0.60772 1.276933,-0.5741211 z" /><path
       style="fill:none;stroke:#ffffff;stroke-width:5;stroke-linecap:butt;stroke-linejoin:round;stroke-dasharray:none;stroke-opacity:1"
       d="M 29.679909,93.958036 C 28.357876,88.203803 26.144784,78.828109 25.241182,74.881924 17.887524,72.860907 11.684893,71.075226 6.4948413,69.936037"
       id="path5567"
       sodipodi:nodetypes="ccc" /><path
       style="fill:#ffffff;fill-opacity:1;stroke:none;stroke-width:1.18634;stroke-linecap:round;stroke-linejoin:round;stroke-dasharray:none"
       id="path7143"
       sodipodi:type="arc"
       sodipodi:cx="12.935443"
       sodipodi:cy="-103.93198"
       sodipodi:rx="4.0284524"
       sodipodi:ry="4.0284524"
       sodipodi:start="0.0099365434"
       sodipodi:end="6.2831853"
       sodipodi:open="true"
       sodipodi:arc-type="arc"
       d="m 16.963696,-103.89195 a 4.0284524,4.0284524 0 0 1 -4.058274,3.988314 4.0284524,4.0284524 0 0 1 -3.9983818,-4.048354 4.0284524,4.0284524 0 0 1 4.0384098,-4.00843 4.0284524,4.0284524 0 0 1 4.018445,4.02844"
       transform="rotate(126.94097)" /><path
       style="fill:#ffffff;fill-opacity:1;stroke:none;stroke-width:2.18163;stroke-linecap:round;stroke-linejoin:round;stroke-dasharray:none"
       id="path7145"
       sodipodi:type="arc"
       sodipodi:cx="8.252264"
       sodipodi:cy="-60.659618"
       sodipodi:rx="4.2739582"
       sodipodi:ry="4.2739582"
       sodipodi:start="0.0099365434"
       sodipodi:end="6.2831853"
       sodipodi:open="true"
       sodipodi:arc-type="arc"
       d="m 12.526011,-60.617151 a 4.2739582,4.2739582 0 0 1 -4.305598,4.231372 4.2739582,4.2739582 0 0 1 -4.2420544,-4.295073 4.2739582,4.2739582 0 0 1 4.2845225,-4.252711 4.2739582,4.2739582 0 0 1 4.2633409,4.273945"
       transform="rotate(126.94097)" /><path
       style="fill:#ffffff;fill-opacity:1;stroke:none;stroke-width:2.52159;stroke-linecap:round;stroke-linejoin:round;stroke-dasharray:none"
       id="path7147"
       sodipodi:type="arc"
       sodipodi:cx="27.87747"
       sodipodi:cy="-100.40219"
       sodipodi:rx="3.6226382"
       sodipodi:ry="3.6226382"
       sodipodi:start="0.0099365434"
       sodipodi:end="6.2831853"
       sodipodi:open="true"
       sodipodi:arc-type="arc"
       d="m 31.499929,-100.3662 a 3.6226382,3.6226382 0 0 1 -3.649456,3.586546 3.6226382,3.6226382 0 0 1 -3.595596,-3.640536 3.6226382,3.6226382 0 0 1 3.631592,-3.60463 3.6226382,3.6226382 0 0 1 3.613639,3.62263"
       transform="rotate(126.94097)" /><path
       style="fill:#ffffff;fill-opacity:1;stroke:none;stroke-width:1.97614;stroke-linecap:round;stroke-linejoin:round;stroke-dasharray:none"
       id="path7147-4"
       sodipodi:type="arc"
       sodipodi:cx="14.53553"
       sodipodi:cy="-74.764145"
       sodipodi:rx="2.8390162"
       sodipodi:ry="2.8390162"
       sodipodi:start="0.0099365434"
       sodipodi:end="6.2831853"
       sodipodi:open="true"
       sodipodi:arc-type="arc"
       d="m 17.374406,-74.735935 a 2.8390162,2.8390162 0 0 1 -2.860033,2.810727 2.8390162,2.8390162 0 0 1 -2.817824,-2.853042 2.8390162,2.8390162 0 0 1 2.846034,-2.824902 2.8390162,2.8390162 0 0 1 2.831963,2.839007"
       transform="rotate(126.94097)" /><path
       style="fill:#ffffff;fill-opacity:1;stroke:none;stroke-width:1.53293;stroke-linecap:round;stroke-linejoin:round;stroke-dasharray:none"
       id="path7165"
       sodipodi:type="arc"
       sodipodi:cx="27.258499"
       sodipodi:cy="-77.768562"
       sodipodi:rx="3.8039417"
       sodipodi:ry="3.8039417"
       sodipodi:start="0.0099365434"
       sodipodi:end="6.2831853"
       sodipodi:open="true"
       sodipodi:arc-type="arc"
       d="m 31.062253,-77.730765 a 3.8039417,3.8039417 0 0 1 -3.832102,3.766039 3.8039417,3.8039417 0 0 1 -3.775547,-3.822735 3.8039417,3.8039417 0 0 1 3.813345,-3.785031 3.8039417,3.8039417 0 0 1 3.794492,3.80393"
       transform="rotate(126.94097)" /><path
       style="fill:#ffffff;fill-opacity:1;stroke:none;stroke-width:1.79661;stroke-linecap:round;stroke-linejoin:round;stroke-dasharray:none"
       id="path7167"
       sodipodi:type="arc"
       sodipodi:cx="5.5160728"
       sodipodi:cy="-30.579531"
       sodipodi:rx="3.9889565"
       sodipodi:ry="3.9889565"
       sodipodi:start="0.0099365434"
       sodipodi:end="6.2831853"
       sodipodi:open="true"
       sodipodi:arc-type="arc"
       d="m 9.5048323,-30.539895 a 3.9889565,3.9889565 0 0 1 -4.0184866,3.94921 3.9889565,3.9889565 0 0 1 -3.9591802,-4.008664 3.9889565,3.9889565 0 0 1 3.9988163,-3.969126 3.9889565,3.9889565 0 0 1 3.9790474,3.988944"
       transform="rotate(126.94097)" /><path
       style="fill:#ffffff;fill-opacity:1;stroke:none;stroke-width:1.64955;stroke-linecap:round;stroke-linejoin:round;stroke-dasharray:none"
       id="path7167-4"
       sodipodi:type="arc"
       sodipodi:cx="2.4236321"
       sodipodi:cy="-49.650558"
       sodipodi:rx="3.6624472"
       sodipodi:ry="3.6624472"
       sodipodi:start="0.0099365434"
       sodipodi:end="6.2831853"
       sodipodi:open="true"
       sodipodi:arc-type="arc"
       d="m 6.0858986,-49.614167 a 3.6624472,3.6624472 0 0 1 -3.6895602,3.625954 3.6624472,3.6624472 0 0 1 -3.6351083,-3.680541 3.6624472,3.6624472 0 0 1 3.6715,-3.64424 3.6624472,3.6624472 0 0 1 3.6533493,3.662436"
       transform="rotate(126.94097)" /></g></svg>
